<svg xmlns="http://www.w3.org/2000/svg" viewBox="0 0 800 450">
  <defs>
    <linearGradient id="bg" x1="0" y1="0" x2="0" y2="1">
      <stop offset="0%" stop-color="#3e2f2a"/>
      <stop offset="100%" stop-color="#1e1714"/>
    </linearGradient>
  </defs>
  <rect width="800" height="450" fill="url(#bg)"/>
  <rect y="290" width="800" height="160" fill="#0f0d0c"/>
  <rect x="90" y="88" width="620" height="150" rx="16" fill="#6d4f3a"/>
  <rect x="110" y="110" width="580" height="30" rx="8" fill="#f5cf7b"/>
  <rect x="130" y="152" width="90" height="70" rx="8" fill="#8db8ce"/>
  <rect x="250" y="152" width="90" height="70" rx="8" fill="#c88d60"/>
  <rect x="370" y="152" width="90" height="70" rx="8" fill="#b4d3df"/>
  <rect x="490" y="152" width="90" height="70" rx="8" fill="#d4a06f"/>
  <rect x="610" y="152" width="70" height="70" rx="8" fill="#9bc4dc"/>
  <path d="M260 330h120l-18 32h-84z" fill="#f2f2f2"/>
  <path d="M440 290h38v54c0 15-12 28-28 28h-10z" fill="#f4c26e"/>
  <circle cx="459" cy="280" r="10" fill="#f4c26e"/>
</svg>
